<svg id="Layer_1" data-name="Layer 1" xmlns="http://www.w3.org/2000/svg" viewBox="0 0 63.892 63.892"><defs><style>.cls-1{fill:#e8ebf0;}</style></defs><title>footer icon parler</title><path class="cls-1" d="M63.891,31.886A32.021,32.021,0,0,0,31.739,0l-.206,0A31.928,31.928,0,0,0,0,32.323c0,.064,0,.129,0,.193a31.946,31.946,0,0,0,63.887-.559ZM40.611,51.138a20.4,20.4,0,1,1,4.682-34.387c-2.3,1.864-4.517,3.685-6.78,5.446a1.358,1.358,0,0,1-1.106-.062,11.44,11.44,0,0,0-16.436,9.349,10.509,10.509,0,0,0,.254,3.478,1.674,1.674,0,0,1-.728,1.987A64.445,64.445,0,0,0,14.976,41.7c2.351-.623,4.713-1.209,7.048-1.888a1.77,1.77,0,0,1,2.067.528,10.931,10.931,0,0,0,11.3,3.184,11.018,11.018,0,0,0,8.119-8.361,1.706,1.706,0,0,1,1.416-1.47c2.206-.527,4.383-1.169,6.574-1.758.353-.1.715-.153,1.062-.226C54.338,37.906,48.184,47.826,40.611,51.138Z" transform="translate(0.001 0.001)"/></svg>