<svg id="Layer_1" data-name="Layer 1" xmlns="http://www.w3.org/2000/svg" viewBox="0 0 63.89 63.395"><defs><style>.cls-1,.cls-2{fill:#e8ebf0;}.cls-1{fill-rule:evenodd;}</style></defs><title>footer icon github</title><path class="cls-1" d="M31.945.248C14.305.248,0,14.8,0,32.747A32.461,32.461,0,0,0,21.846,63.586c1.6.3,2.183-.7,2.183-1.563,0-.775-.03-3.335-.044-6.051-8.887,1.966-10.762-3.835-10.762-3.835-1.453-3.756-3.547-4.755-3.547-4.755-2.9-2.017.218-1.976.218-1.976,3.208.23,4.9,3.35,4.9,3.35,2.849,4.968,7.473,3.532,9.3,2.7a6.964,6.964,0,0,1,2.028-4.346C19.02,46.29,11.561,43.5,11.561,31.05a12.7,12.7,0,0,1,3.292-8.724,11.867,11.867,0,0,1,.309-8.6s2.683-.873,8.787,3.332a29.794,29.794,0,0,1,16,0c6.1-4.2,8.776-3.332,8.776-3.332a11.848,11.848,0,0,1,.313,8.6,12.673,12.673,0,0,1,3.288,8.724c0,12.483-7.473,15.231-14.587,16.036,1.146,1.008,2.167,2.986,2.167,6.018,0,4.348-.037,7.848-.037,8.919,0,.865.575,1.878,2.194,1.559A32.459,32.459,0,0,0,63.89,32.747C63.89,14.8,49.587.248,31.945.248Z" transform="translate(0 -0.248)"/><path class="cls-2" d="M12.1,46.91c-.07.162-.32.21-.547.1s-.362-.326-.287-.488.319-.212.55-.1.364.328.284.49Zm-.393-.3" transform="translate(0 -0.248)"/><path class="cls-2" d="M13.393,48.378c-.152.144-.45.077-.652-.15a.5.5,0,0,1-.094-.675c.157-.144.446-.076.655.15s.251.53.091.675Zm-.3-.332" transform="translate(0 -0.248)"/><path class="cls-2" d="M14.653,50.25c-.2.139-.516.009-.714-.28s-.2-.636.005-.775.513-.013.714.273.2.641,0,.782Zm0,0" transform="translate(0 -0.248)"/><path class="cls-2" d="M16.378,52.059c-.175.2-.548.143-.821-.125a.631.631,0,0,1-.181-.83c.177-.2.552-.142.827.124s.362.636.175.831Zm0,0" transform="translate(0 -0.248)"/><path class="cls-2" d="M18.759,53.109c-.078.254-.437.37-.8.261s-.6-.409-.525-.666.436-.377.8-.261.6.407.523.666Zm0,0" transform="translate(0 -0.248)"/><path class="cls-2" d="M21.373,53.3c.009.268-.3.49-.677.5S20,53.59,20,53.326s.3-.49.682-.5.691.208.691.474Zm0,0" transform="translate(0 -0.248)"/><path class="cls-2" d="M23.806,52.882c.045.261-.219.53-.6.6s-.714-.092-.761-.351.223-.537.593-.606.716.09.764.356Zm0,0" transform="translate(0 -0.248)"/></svg>