<svg id="Layer_1" data-name="Layer 1" xmlns="http://www.w3.org/2000/svg" viewBox="0 0 63.892 63.892"><defs><style>.cls-1{fill:#e8ebf0;}</style></defs><title>footer icon gab</title><path class="cls-1" d="M30.725,19.9a6.389,6.389,0,1,0,6.389,6.379A6.445,6.445,0,0,0,30.725,19.9Z" transform="translate(0.001 0.001)"/><path class="cls-1" d="M63.891,31.886A32.021,32.021,0,0,0,31.739,0l-.206,0A31.928,31.928,0,0,0,0,32.323c0,.064,0,.129,0,.193a31.946,31.946,0,0,0,63.887-.559ZM46.14,38.54a19.963,19.963,0,0,1-2.008,8.974,13.147,13.147,0,0,1-8.478,7.041,19.267,19.267,0,0,1-14.379-1.221,12.709,12.709,0,0,1-2.07-1.347.369.369,0,0,1-.123-.559c1.091-2.03,2.181-4.061,3.252-6.1.213-.407.408-.236.656-.074a11.3,11.3,0,0,0,6.343,1.975,7.388,7.388,0,0,0,7.587-6.385,24.116,24.116,0,0,0,.2-3.5.524.524,0,0,0-.393.239,10.506,10.506,0,0,1-9.217,3.162A13.747,13.747,0,0,1,15.455,28.617,15.005,15.005,0,0,1,18.97,16.255,12.958,12.958,0,0,1,33.45,12.67a9.619,9.619,0,0,1,3.16,2.205,1.153,1.153,0,0,0,.509.406c0-.712.029-1.39-.01-2.064-.028-.462.144-.558.574-.555q3.965.027,7.931,0c.452,0,.56.133.559.568C46.158,21.665,46.185,30.1,46.14,38.54Z" transform="translate(0.001 0.001)"/></svg>