<svg id="Layer_1" data-name="Layer 1" xmlns="http://www.w3.org/2000/svg" viewBox="0 0 63.892 63.892"><defs><style>.cls-1{fill:#e8ebf0;}</style></defs><title>footer icon rumble</title><path class="cls-1" d="M47.3,30.2c-1.721-4.12-5.092-6.62-8.712-8.875-.482-.3-1.065-.455-1.405-.962l-.037-.024-.46-.2a36.069,36.069,0,0,0-7.381-2.245c-2.653-.387-4.951.116-6.535,2.5-2.068,3.848-2.548,8.01-2.447,12.291.014.619-.046,1.239-.071,1.859l.066.818.035.311h0a34.216,34.216,0,0,0,1.532,5.918A7.379,7.379,0,0,0,25.642,46c4.183.466,7.756-1.2,11.233-3.208a7.853,7.853,0,0,1,2.007-1.083l.715-.545.039-.1.108,0a.139.139,0,0,1-.147.1.139.139,0,0,0,.147-.1,39.291,39.291,0,0,0,5.629-5.333A7.525,7.525,0,0,0,47.5,31.116a1.836,1.836,0,0,1-.079-.222c-.008-.035.019-.077.03-.116.017.113.033.226.049.338l-.049-.338ZM38.81,33.52a15.189,15.189,0,0,1-8.274,5.395,2.765,2.765,0,0,1-3.608-1.773,12.9,12.9,0,0,1-.966-5.224A12.783,12.783,0,0,1,27,26.635a2.8,2.8,0,0,1,3.127-1.773,13.152,13.152,0,0,1,8.679,4.87A2.642,2.642,0,0,1,38.81,33.52Z" transform="translate(0.001 0.001)"/><path class="cls-1" d="M63.891,31.886A32.021,32.021,0,0,0,31.739,0l-.206,0A31.928,31.928,0,0,0,0,32.323c0,.064,0,.129,0,.193a31.946,31.946,0,0,0,63.887-.559Zm-9.763.726c1,2.662.273,4.982-1.415,7.109a25.533,25.533,0,0,1-6.163,5.364C41.893,48.139,37.13,51,31.79,52.747a13.81,13.81,0,0,1-4.233.751,6.387,6.387,0,0,1-5.473-2.65,2.093,2.093,0,0,0-1.514-.89,6.808,6.808,0,0,1-5.456-4.721c-1.691-4.446-1.646-9.115-1.823-13.61.15-4.319.144-8.5,1.387-12.549a9.716,9.716,0,0,1,2.432-4.343c.668-.64,1.427-1.386,2.308-1.365,1.967.049,3.258-1.036,4.742-2.065,1.79-1.242,3.96-1,6-.533,5.128,1.181,9.582,3.852,14.015,6.535A36.685,36.685,0,0,1,51.4,22.753c2.455,2.483,4.119,5.227,2.654,8.888A1.265,1.265,0,0,0,54.128,32.612Z" transform="translate(0.001 0.001)"/></svg>