<svg id="Layer_1" data-name="Layer 1" xmlns="http://www.w3.org/2000/svg" viewBox="0 0 63.892 63.892"><defs><style>.cls-1{fill:#e8ebf0;}</style></defs><title>footer icon dissenter</title><path class="cls-1" d="M40.186,31.207q-7.666,0-15.332,0a1.062,1.062,0,0,0-1.114,1.123A1.049,1.049,0,0,0,24.85,33.4H40.182a1.1,1.1,0,1,0,0-2.2Z" transform="translate(0.001 0.001)"/><path class="cls-1" d="M35.076,37.451H29.993q-2.622,0-5.245,0a1.019,1.019,0,0,0-.907,1.3c.14.66.452.9,1.191.9q4.961,0,9.922,0a1.718,1.718,0,0,0,.2,0,1.124,1.124,0,0,0,.987-1.308A.969.969,0,0,0,35.076,37.451Z" transform="translate(0.001 0.001)"/><path class="cls-1" d="M24.912,27.1h8.621q3.416,0,6.831,0a.99.99,0,0,0,.911-1.346c-.185-.638-.477-.848-1.2-.848H25.031a1.734,1.734,0,0,0-.2,0,1.1,1.1,0,1,0,.085,2.194Z" transform="translate(0.001 0.001)"/><path class="cls-1" d="M63.891,31.886A32.021,32.021,0,0,0,31.739,0l-.206,0A31.928,31.928,0,0,0,0,32.323c0,.064,0,.129,0,.193a31.946,31.946,0,0,0,63.887-.559Zm-11.02,5.8A17.325,17.325,0,0,1,50.327,43.1a17.139,17.139,0,0,1-3.266,3.426,16.31,16.31,0,0,1-4.977,2.71,19.709,19.709,0,0,1-4.065.925,24.092,24.092,0,0,1-2.939.152q-8.468,0-16.933-.006a3.452,3.452,0,0,1-2.767-1.46,4.035,4.035,0,0,1-.823-2.611c.014-4.573.007-9.145.007-13.717,0-4.695-.012-9.389.005-14.083a3.818,3.818,0,0,1,3.708-3.709c6.079.018,12.157-.03,18.235.026a18.061,18.061,0,0,1,6.338,1.293,16.706,16.706,0,0,1,4.1,2.263,15.728,15.728,0,0,1,3.189,3.216,16.576,16.576,0,0,1,2.62,5.375,18.542,18.542,0,0,1,.655,3.274,21.966,21.966,0,0,1,.145,2.9A19.84,19.84,0,0,1,52.871,37.69Z" transform="translate(0.001 0.001)"/></svg>