<svg id="Layer_1" data-name="Layer 1" xmlns="http://www.w3.org/2000/svg" viewBox="0 0 63.892 63.709"><defs><style>.cls-1,.cls-3{fill:none;}.cls-1,.cls-2{stroke:#e2e6ed;stroke-width:0.75px;}.cls-2{fill:#131923;}.cls-4{fill:#e2e6ed;}</style></defs><title>footer icon minds</title><g id="Group_159" data-name="Group 159"><g id="Group_158" data-name="Group 158"><g id="Group_157" data-name="Group 157"><path id="Path_221" data-name="Path 221" class="cls-1" d="M40.871,26.561,40,42.2l6.41-9.55Z" transform="translate(0.001 -0.091)"/><path id="Path_222" data-name="Path 222" class="cls-2" d="M24.7,46.631" transform="translate(0.001 -0.091)"/><path id="Path_223" data-name="Path 223" class="cls-3" d="M24.7,55.211" transform="translate(0.001 -0.091)"/><line id="Line_17" data-name="Line 17" class="cls-3" x1="38.642" y1="46.54" x2="24.702" y2="46.54"/><path id="Path_224" data-name="Path 224" class="cls-1" d="M26.091,20.471l-9.2,12.18L30.271,35Z" transform="translate(0.001 -0.091)"/><path id="Path_225" data-name="Path 225" class="cls-1" d="M45.611,18.811l-8.37-8.58,3.63,16.33Z" transform="translate(0.001 -0.091)"/><path id="Path_226" data-name="Path 226" class="cls-1" d="M23.3,42.2l1.4,4.43L30.271,35Z" transform="translate(0.001 -0.091)"/><path id="Path_227" data-name="Path 227" class="cls-1" d="M26.091,10.231l-8.36,8.58,8.36,1.66Z" transform="translate(0.001 -0.091)"/><path id="Path_228" data-name="Path 228" class="cls-1" d="M38.641,46.631,40,42.2l-15.3,4.43Z" transform="translate(0.001 -0.091)"/><path id="Path_229" data-name="Path 229" class="cls-1" d="M30.271,35,40,42.2l.84-15.64Z" transform="translate(0.001 -0.091)"/><g id="Group_156" data-name="Group 156"><g id="Group_155" data-name="Group 155"><path id="Path_230" data-name="Path 230" class="cls-1" d="M16.891,32.651l6.42,9.55,7-7.2Z" transform="translate(0.001 -0.091)"/></g></g><path id="Path_231" data-name="Path 231" class="cls-1" d="M40.871,26.561l-3.63-16.33-11.15,10.24Z" transform="translate(0.001 -0.091)"/><path id="Path_232" data-name="Path 232" class="cls-1" d="M24.7,46.631,40,42.2,30.241,35Z" transform="translate(0.001 -0.091)"/><path id="Path_233" data-name="Path 233" class="cls-1" d="M26.091,20.471,30.271,35l10.6-8.44Z" transform="translate(0.001 -0.091)"/><path id="Path_234" data-name="Path 234" class="cls-1" d="M16.891,32.651l9.2-12.18-8.36-1.66Z" transform="translate(0.001 -0.091)"/><path id="Path_235" data-name="Path 235" class="cls-1" d="M46.441,32.651l-.83-13.84-4.74,7.75Z" transform="translate(0.001 -0.091)"/><path id="Path_236" data-name="Path 236" class="cls-1" d="M37.241,10.231H26.091v10.24Z" transform="translate(0.001 -0.091)"/></g><path id="Path_237" data-name="Path 237" class="cls-4" d="M63.891,31.981A32,32,0,0,0,31.782.091h-.241A31.941,31.941,0,0,0,0,32.411H0v.2a31.95,31.95,0,0,0,63.89-.52Zm-24,10.34-1.33,4.47v8.66l-6.89,2.79-6.89-2.79v-8.66l-1.38-4.47-6.34-9.64.83-14,8.27-8.59h11l8.27,8.66.83,14Z" transform="translate(0.001 -0.091)"/></g></g></svg>