<svg id="Layer_1" data-name="Layer 1" xmlns="http://www.w3.org/2000/svg" viewBox="0 0 63.892 63.892"><defs><style>.cls-1{fill:#e8ebf0;}</style></defs><title>footer icon odysee</title><path class="cls-1" d="M44.328,51.171A21.155,21.155,0,0,0,42.5,45.392c-.859-1.87-2.511-2.868-5.246-2.768-.1,1.283-.207,2.368-.26,3.456-.439,9.11-3.685,12.869-12.753,14.293a12.2,12.2,0,0,1-5.365-.664c-2.207-.7-3.668-3.818-3.185-6,.436-1.966,2.266-3.268,4.84-3.436.612-.04,1.235,0,1.836-.1,3.288-.536,5.191-3.2,3.941-6.226-1.416-3.434-3.4-6.633-5.217-10.076A25.57,25.57,0,0,0,11.43,38.85C8.8,41.178,6.163,43.3,1.993,43.294c3.888,10,10.8,16.2,20.521,19.111,9.653,2.887,18.867,1.6,27.7-4.154C44.963,56.454,45.067,56.439,44.328,51.171ZM13.028,43.9a.805.805,0,0,1-.536-.481c-.041-.158.212-.393.433-.756.261.342.518.537.539.754C13.478,43.57,13.147,43.919,13.028,43.9ZM39.1,55.078c-.23-.007-.652-.389-.627-.549a1,1,0,0,1,.592-.7c.2-.051.5.286.963.588C39.587,54.758,39.341,55.086,39.1,55.078Z" transform="translate(0.001 0.001)"/><path class="cls-1" d="M12.381,6.381C3.781,12.787-2.268,26.389.815,35.316a96.8,96.8,0,0,1,8.268-6.143A100.157,100.157,0,0,1,18.588,24.7c-.349-1.3-.709-2.349-.905-3.429-.49-2.7-1.392-5.432-1.252-8.106C16.748,7.1,24.545,1.515,30.614,2.686A6.257,6.257,0,0,1,35.7,6.653c.977,2.677,1.8,5.409,2.7,8.116.373,1.125.757,2.248,1.093,3.246,3.393.214,5.1-1.053,6.087-4.162.942-2.967,1.934-5.918,2.945-9C42.735-.465,25.319-3.255,12.381,6.381ZM6.747,24.535c-.269-.056-.473-.426-.7-.662.227-.212.441-.571.687-.594.231-.022.5.309.917.605C7.227,24.205,6.944,24.576,6.747,24.535Zm34.5-15.422c-.215-.235-.569-.453-.6-.709-.026-.216.327-.476.67-.919.3.474.622.762.58.978C41.845,8.713,41.474,8.9,41.243,9.113Z" transform="translate(0.001 0.001)"/><path class="cls-1" d="M55.164,10.607c-.32,1.509-.625,2.975-.942,4.439-1.152,5.32-5.425,8.469-8.7,12.29-2.2,2.566-2.113,3.114.329,5.415,2.04,1.921,4.238,4,5.383,6.466,1.946,4.19,3.121,8.736,4.774,13.587C68.467,38.924,64.6,17.92,55.164,10.607ZM49.593,32.26a1.1,1.1,0,0,1-.744-.717.644.644,0,0,1,.735-.794c.3.033.575.352.861.542l.024.366C50.176,31.875,49.874,32.275,49.593,32.26Zm5.228-6.317a2.709,2.709,0,0,0-2.3-1.761,2.525,2.525,0,0,0,1.767-2.334A2.768,2.768,0,0,0,56.6,23.671,2.671,2.671,0,0,0,54.821,25.943Z" transform="translate(0.001 0.001)"/><path class="cls-1" d="M29.991,5.705c-4.177.351-7.546,2.161-7.692,6.987-.124,4.1,1.728,6.354,5.188,6.383,4.6.038,8.374-2.542,8.347-5.7C35.8,9.18,33.135,5.44,29.991,5.705Zm1.187,2.438a1.2,1.2,0,0,1,.712-.76c.454-.134,1.31.867,1.238,1.7A1.828,1.828,0,0,1,32.4,9.6C31.993,9.707,31.074,8.66,31.178,8.143ZM33.763,14.8c-.932-.053-.66-.808-.654-1.411a7.036,7.036,0,0,0-.23-1.165c-.08-.471-.093-.927.508-1.086.545-.144.808.187.948.621l.312,1.525c0,.027.014.08.011.109C34.6,13.979,34.736,14.856,33.763,14.8Z" transform="translate(0.001 0.001)"/></svg>