<svg id="Layer_1" data-name="Layer 1" xmlns="http://www.w3.org/2000/svg" viewBox="0 0 48.03 48.03"><defs><style>.cls-1{fill:none;}.cls-2{fill:#fabb14;}.cls-3{fill:#707171;}</style></defs><title>body icon contact</title><g id="Ellipse_16" data-name="Ellipse 16"><circle id="Ellipse_19" data-name="Ellipse 19" class="cls-1" cx="24.015" cy="24.015" r="24.015"/><path class="cls-2" d="M24.015,48.03A24.015,24.015,0,1,1,48.03,24.015,24.042,24.042,0,0,1,24.015,48.03Zm0-45.03A21.015,21.015,0,1,0,45.03,24.015,21.038,21.038,0,0,0,24.015,3Z" transform="translate(0 0)"/></g><g id="Group_127" data-name="Group 127"><path id="Path_7-2" data-name="Path 7-2" class="cls-3" d="M3.605,24.014A20.41,20.41,0,1,1,24.014,44.425h-.2A20.437,20.437,0,0,1,3.605,24.014ZM23.793,42.1A18.072,18.072,0,1,0,5.935,23.817c0,.043,0,.086,0,.13A18.1,18.1,0,0,0,23.793,42.1Z" transform="translate(0 0)"/></g><path class="cls-3" d="M12.454,20.966c2.226,1.254,4.305,2.423,6.381,3.6,1.279.723,2.585,1.408,3.82,2.2a2.239,2.239,0,0,0,2.667.046c3.022-1.795,6.11-3.488,9.175-5.216.322-.182.66-.338,1.174-.6,0,2.766,0,5.341,0,7.915,0,3.355-.092,3.44-3.638,3.441q-8.56,0-17.122,0c-2.026,0-2.538-.5-2.544-2.481q-.011-3.882,0-7.764C12.362,21.779,12.413,21.458,12.454,20.966Z" transform="translate(0 0)"/><path class="cls-3" d="M35.638,18.754a3.632,3.632,0,0,1-.561.46c-3.425,1.954-6.842,3.92-10.3,5.81a1.966,1.966,0,0,1-1.587-.047c-3.36-1.836-6.679-3.74-10-5.637-.948-.542-.958-1.332.016-1.846a3.246,3.246,0,0,1,1.454-.3q9.381-.027,18.761-.006C34.69,17.185,35.645,17.8,35.638,18.754Z" transform="translate(0 0)"/></svg>