<svg id="Layer_1" data-name="Layer 1" xmlns="http://www.w3.org/2000/svg" viewBox="0 0 48.03 48.03"><defs><style>.cls-1,.cls-4{fill:#707171;}.cls-1{stroke:#707171;stroke-miterlimit:10;stroke-width:1.5px;}.cls-2{fill:none;}.cls-3{fill:#fabb14;}</style></defs><title>body icon life</title><path class="cls-1" d="M34.559,21.373a5.639,5.639,0,0,0-2.76-3.329,5.507,5.507,0,0,0-2.335-.652.131.131,0,0,1-.135-.094,6.559,6.559,0,0,0-.458-.938,5.546,5.546,0,0,0-1.559-1.693,5.708,5.708,0,0,0-4.433-.94,5.527,5.527,0,0,0-2.263,1.018,5.687,5.687,0,0,0-1.162,1.167,5.609,5.609,0,0,0-.747,1.373c-.023.063-.048.1-.125.107a5.915,5.915,0,0,0-1.691.357,5.644,5.644,0,0,0-3.378,3.5,5.662,5.662,0,0,0,1.781,6.186.194.194,0,0,1,.074.222,5.6,5.6,0,0,0-.144.7A5.424,5.424,0,0,0,15.244,30a5.711,5.711,0,0,0,2.989,4.127,5.578,5.578,0,0,0,3.16.608,5.487,5.487,0,0,0,2.509-.873.223.223,0,0,1,.289.005,1.909,1.909,0,0,0,.446.243l.55.253a5.676,5.676,0,0,0,7.667-5.121,5.7,5.7,0,0,0-.183-1.608.168.168,0,0,1,.066-.2c.153-.132.31-.261.452-.4a5.692,5.692,0,0,0,1.071-1.514,5.483,5.483,0,0,0,.545-2.078A5.606,5.606,0,0,0,34.559,21.373Zm-6.378-2.741.2-.026c.056,0,.1.01.11.079a4.336,4.336,0,0,1,.052.7c-.015.192-.036.384-.054.575l-.048.232a4.546,4.546,0,0,1-2.556,3.2,4.742,4.742,0,0,1-1.074.339c-.09.018-.134,0-.147-.109a4.4,4.4,0,0,1,.667-2.984,4.451,4.451,0,0,1,2.7-1.958C28.084,18.668,28.132,18.649,28.181,18.632Zm1.956,7.01a4.66,4.66,0,0,1,1.043,1.306c.048.088.033.132-.057.174a4.63,4.63,0,0,1-1.838.445,4.38,4.38,0,0,1-2.781-.849,4.427,4.427,0,0,1-1.349-1.55c-.046-.088-.048-.133.053-.178a4.587,4.587,0,0,1,1.6-.437,2.8,2.8,0,0,1,.367-.022A4.531,4.531,0,0,1,30.137,25.642ZM19.913,17.39a4.508,4.508,0,0,1,1.92-2.064,4.517,4.517,0,0,1,6.274,2.045c.045.1.033.113-.074.135a5.585,5.585,0,0,0-2.4,1.11,5.673,5.673,0,0,0-1.411,1.639c-.066.117-.129.237-.2.373-.1-.175-.193-.336-.288-.5a5.518,5.518,0,0,0-1.3-1.491,5.676,5.676,0,0,0-1.844-.99,2.037,2.037,0,0,0-.563-.121c-.035-.045-.09-.021-.133-.038v-.04h0Zm-.373,1.326a.137.137,0,0,1,.056-.134c.265.08.538.123.8.22a4.668,4.668,0,0,1,1.455.85,4.523,4.523,0,0,1,.991,1.221,4.39,4.39,0,0,1,.524,1.6,4.556,4.556,0,0,1,0,1.155c-.012.091-.055.122-.142.105a4.594,4.594,0,0,1-1.979-.889,4.532,4.532,0,0,1-1.205-1.422,4.8,4.8,0,0,1-.547-2.336h0A1.189,1.189,0,0,0,19.54,18.716Zm3.314,6.5a4.557,4.557,0,0,1-1.449,1.595,4.34,4.34,0,0,1-1.769.706c-.264.043-.534.048-.754.067a4.683,4.683,0,0,1-1.969-.462c-.1-.053-.087-.093-.045-.169a4.712,4.712,0,0,1,1.206-1.422,4.4,4.4,0,0,1,2.312-.936,4.459,4.459,0,0,1,2.406.421C22.9,25.068,22.908,25.116,22.854,25.215Zm-7.079,1.113a4.662,4.662,0,0,1-1.166-1.8,4.319,4.319,0,0,1-.245-1.412,4.4,4.4,0,0,1,.788-2.608,4.492,4.492,0,0,1,3.069-1.929c.151-.025.177,0,.153.154a.983.983,0,0,0-.021.265h0l0,.172a5.084,5.084,0,0,0,0,.592l.045.261a5.185,5.185,0,0,0,.44,1.57,5.624,5.624,0,0,0,1.2,1.716c.021.02.042.038.061.06.052.059.053.093-.04.106a5.66,5.66,0,0,0-3.334,1.727,5.289,5.289,0,0,0-.809,1.1C15.873,26.384,15.833,26.385,15.775,26.328ZM23,33.062a4.517,4.517,0,0,1-5.559-1,4.36,4.36,0,0,1-1.018-2.052,4.421,4.421,0,0,1-.1-.952,4.655,4.655,0,0,1,.075-.743c.023-.125.07-.141.176-.091a5.267,5.267,0,0,0,1.207.389,1.314,1.314,0,0,0,.405.047h0c.031.04.075.026.115.027a4.722,4.722,0,0,0,.857.028,4.3,4.3,0,0,0,.723-.088c.052.013.1-.017.146-.023a5.3,5.3,0,0,0,1.471-.521c.028-.014.07-.037.09-.027.045.023.009.067,0,.1a5.665,5.665,0,0,0,.658,3.672,5.033,5.033,0,0,0,.784,1.067C23.107,32.978,23.1,33.007,23,33.062Zm1.2-.958c-.186.213-.124.24-.348,0a4.378,4.378,0,0,1-.954-1.619,4.434,4.434,0,0,1,.145-3.226,4.385,4.385,0,0,1,.87-1.311c.064-.067.106-.069.171,0a4.48,4.48,0,0,1,1.238,2.533c.014.107.024.214.03.323a2.075,2.075,0,0,1,.019.3,4.552,4.552,0,0,1-1.079,2.919C24.266,32.049,24.228,32.072,24.2,32.1Zm7.281-1.635a4.579,4.579,0,0,1-2.612,2.779,4.569,4.569,0,0,1-2.1.311,5.132,5.132,0,0,1-1.185-.271l-.086-.043,0,0a3.452,3.452,0,0,1-.408-.193c-.091-.05-.105-.092-.033-.17a5.437,5.437,0,0,0,.88-1.292,5.518,5.518,0,0,0,.526-1.735,7.666,7.666,0,0,0,.054-.945c0-.256-.056-.5-.076-.758,0-.032-.025-.07,0-.1s.07.006.1.022a5.369,5.369,0,0,0,1.334.494,5.681,5.681,0,0,0,1.6.137c.142-.028.418-.049.488-.062l.5-.093c.162-.039-.235.049.162-.039a4.085,4.085,0,0,0,.825-.284c.173-.076.184-.076.209.1A4.632,4.632,0,0,1,31.481,30.469Zm1.883-5.787a4.379,4.379,0,0,1-.842,1.363c-.084.089-.166.179-.248.271-.062.07-.107.057-.149-.022a5.351,5.351,0,0,0-1.061-1.364,5.513,5.513,0,0,0-1.93-1.2,6.226,6.226,0,0,0-1.091-.283c-.039-.007-.095.018-.113-.033s.033-.072.062-.1a5.456,5.456,0,0,0,.785-.962,5.7,5.7,0,0,0,.792-1.937.533.533,0,0,0,0-.057,4.577,4.577,0,0,0,.107-.764l0-.226a3.367,3.367,0,0,0-.05-.77c.069-.055.145-.023.216-.011a4.478,4.478,0,0,1,.91.243l.172.056a9.125,9.125,0,0,1,.817.474,4.419,4.419,0,0,1,1.876,3.111A4.363,4.363,0,0,1,33.364,24.682Z" transform="translate(0 0)"/><g id="Ellipse_16" data-name="Ellipse 16"><circle id="Ellipse_19" data-name="Ellipse 19" class="cls-2" cx="24.015" cy="24.015" r="24.015"/><path class="cls-3" d="M24.015,48.03A24.015,24.015,0,1,1,48.03,24.015,24.042,24.042,0,0,1,24.015,48.03Zm0-45.03A21.015,21.015,0,1,0,45.03,24.015,21.038,21.038,0,0,0,24.015,3Z" transform="translate(0 0)"/></g><g id="Group_127" data-name="Group 127"><path id="Path_7-2" data-name="Path 7-2" class="cls-4" d="M3.605,24.014A20.41,20.41,0,1,1,24.014,44.425h-.2A20.437,20.437,0,0,1,3.605,24.014ZM23.793,42.1A18.072,18.072,0,1,0,5.935,23.817c0,.043,0,.086,0,.13A18.1,18.1,0,0,0,23.793,42.1Z" transform="translate(0 0)"/></g></svg>