<svg id="Layer_1" data-name="Layer 1" xmlns="http://www.w3.org/2000/svg" viewBox="0 0 48.03 48.03"><defs><style>.cls-1,.cls-4,.cls-5{fill:#707070;}.cls-2,.cls-3{fill:none;}.cls-3{stroke:#fcbc0d;stroke-width:3px;}.cls-4,.cls-5{stroke:#707070;stroke-width:2.5px;}.cls-4{stroke-linecap:square;}</style></defs><title>body icon code</title><g id="Group_90-4" data-name="Group 90-4"><g id="Group_11-4" data-name="Group 11-4"><path id="Path_7-4" data-name="Path 7-4" class="cls-1" d="M3.61,23.91a20.41,20.41,0,1,1,20.4,20.42h-.2A20.43,20.43,0,0,1,3.61,23.91ZM23.79,42A18.07,18.07,0,1,0,5.94,23.71h0v.14A18.1,18.1,0,0,0,23.8,42Z" transform="translate(0 0)"/></g><g id="Ellipse_16-4" data-name="Ellipse 16-4"><path id="Path_65-4" data-name="Path 65-4" class="cls-2" d="M24,0A24,24,0,1,1,0,24H0a24.557,24.557,0,0,1,1.82-9.2A23.92,23.92,0,0,1,24,0Z" transform="translate(0 0)"/><circle id="Ellipse_21-4" data-name="Ellipse 21-4" class="cls-3" cx="24.02" cy="24.02" r="22.51"/></g></g><g id="Group_78-4" data-name="Group 78-4"><path id="Path_61-4" data-name="Path 61-4" class="cls-4" d="M29.71,27.8l4.49-3.22h0l-4.49-3.65V19.35l6,4.94v.61l-6,4.43Z" transform="translate(0 0)"/><path id="Path_62-4" data-name="Path 62-4" class="cls-4" d="M18.16,29.33l-6-4.43v-.61l6-4.95v1.55l-4.49,3.65v.05l4.49,3.22Z" transform="translate(0 0)"/><path id="Path_63-4" data-name="Path 63-4" class="cls-5" d="M27.71,15.81,21.55,32.87H20.18l6.14-17.06Z" transform="translate(0 0)"/></g></svg>