<svg id="Layer_1" data-name="Layer 1" xmlns="http://www.w3.org/2000/svg" viewBox="0 0 49.03 49.03"><defs><style>.cls-1{fill:#707171;}.cls-2,.cls-3{fill:none;stroke:#fabb14;}.cls-3{stroke-width:3px;}</style></defs><title>body icon fitness</title><g id="Group_85" data-name="Group 85"><path id="Path_7" data-name="Path 7" class="cls-1" d="M3.61,23.9A20.41,20.41,0,1,1,24,44.32h-.19A20.44,20.44,0,0,1,3.61,23.9ZM23.8,42A18.07,18.07,0,1,0,5.94,23.7h0v.13A18.12,18.12,0,0,0,23.8,42Z" transform="translate(0.5 0.5)"/><path id="Path_8" data-name="Path 8" class="cls-1" d="M16.34,20v-.69a1.11,1.11,0,0,1,1-1.2h0a.6.6,0,0,1,.19,0h2a1.09,1.09,0,0,1,1.16,1v3h6.58V19.28a1.1,1.1,0,0,1,1-1.17h2.2a1.09,1.09,0,0,1,1.16,1v.15c0,.25,0,.5,0,.76l0-.09a1.09,1.09,0,0,1,1-.74H35a1.08,1.08,0,0,1,1.1,1.07v0c0,.66,0,1.33,0,2v.2h2.18v2.19H36.07v2.13A1.1,1.1,0,0,1,35,28H32.88a1.09,1.09,0,0,1-1.15-.79l-.05-.06V28a1.07,1.07,0,0,1-1.05,1.11H28.44a1.07,1.07,0,0,1-1.13-1h0V25.11l-6.59,0v2.8a1.1,1.1,0,0,1-1,1.2H17.51a1.1,1.1,0,0,1-1.16-1,.24.24,0,0,1,0-.12c0-.24,0-.48,0-.73h0a1.11,1.11,0,0,1-1.16.77c-.66,0-1.32,0-2,0A1.15,1.15,0,0,1,12,26.91v-.13c0-.64,0-1.27,0-1.9a1.09,1.09,0,0,0,0-.18H9.78V22.51H12c0-.07,0-.13,0-.19v-2a1.07,1.07,0,0,1,1-1.11h2.15A1.17,1.17,0,0,1,16.34,20Z" transform="translate(0.5 0.5)"/><g id="Group_84" data-name="Group 84"><g id="Ellipse_10" data-name="Ellipse 10"><circle id="Ellipse_17" data-name="Ellipse 17" class="cls-2" cx="24.52" cy="24.52" r="24.02"/><circle id="Ellipse_18" data-name="Ellipse 18" class="cls-3" cx="24.52" cy="24.52" r="22.52"/></g></g></g></svg>