<svg id="Layer_1" data-name="Layer 1" xmlns="http://www.w3.org/2000/svg" viewBox="0 0 22.4 22.4"><defs><style>.cls-1{fill:none;}.cls-2{fill:#fabb14;}</style></defs><title>header icon contact</title><g id="Ellipse_16" data-name="Ellipse 16"><circle id="Ellipse_19" data-name="Ellipse 19" class="cls-1" cx="11.2" cy="11.2" r="11.2"/><path class="cls-2" d="M11.2,22.4A11.2,11.2,0,1,1,22.4,11.2,11.212,11.212,0,0,1,11.2,22.4Zm0-21A9.8,9.8,0,1,0,21,11.2,9.812,9.812,0,0,0,11.2,1.4Z" transform="translate(0 0)"/></g><path class="cls-2" d="M5.328,9.272C6.459,9.909,7.515,10.5,8.569,11.1c.65.367,1.313.715,1.94,1.115a1.137,1.137,0,0,0,1.355.023c1.535-.911,3.1-1.771,4.66-2.649.164-.092.335-.172.6-.3,0,1.4,0,2.713,0,4.02,0,1.705-.047,1.748-1.848,1.748q-4.349,0-8.7,0c-1.029,0-1.289-.256-1.292-1.26q-.006-1.972,0-3.944C5.281,9.685,5.307,9.522,5.328,9.272Z" transform="translate(0 0)"/><path class="cls-2" d="M17.1,8.149a1.908,1.908,0,0,1-.285.233c-1.74.992-3.475,1.991-5.234,2.951a1,1,0,0,1-.806-.023c-1.707-.933-3.393-1.9-5.081-2.864-.481-.275-.486-.676.009-.937a1.628,1.628,0,0,1,.738-.155q4.765-.015,9.53,0C16.622,7.351,17.107,7.663,17.1,8.149Z" transform="translate(0 0)"/></svg>