<svg id="Layer_1" data-name="Layer 1" xmlns="http://www.w3.org/2000/svg" viewBox="0 0 22.4 22.4"><defs><style>.cls-1,.cls-3{fill:#fabb14;}.cls-1{stroke:#fabb14;stroke-miterlimit:10;stroke-width:0.7px;}.cls-2{fill:none;}</style></defs><title>header icon life</title><path class="cls-1" d="M16.711,9.73a2.947,2.947,0,0,0-1.442-1.74,2.88,2.88,0,0,0-1.221-.341.068.068,0,0,1-.07-.049,3.419,3.419,0,0,0-.24-.49A2.935,2.935,0,0,0,11.96,5.774a2.966,2.966,0,0,0-1.354-.041,2.9,2.9,0,0,0-1.182.532,2.959,2.959,0,0,0-.608.611,2.916,2.916,0,0,0-.39.717c-.013.033-.026.053-.066.056a3.08,3.08,0,0,0-.883.187A2.96,2.96,0,0,0,6.642,12.9a.1.1,0,0,1,.038.116,3.037,3.037,0,0,0-.075.368,2.81,2.81,0,0,0,.011.854,2.981,2.981,0,0,0,1.562,2.157,2.917,2.917,0,0,0,1.652.318,2.86,2.86,0,0,0,1.311-.457.118.118,0,0,1,.151,0,1.033,1.033,0,0,0,.233.127l.288.133a2.969,2.969,0,0,0,3.818-1.733,2.869,2.869,0,0,0,.189-.944,2.946,2.946,0,0,0-.1-.841.087.087,0,0,1,.035-.1c.08-.069.162-.137.236-.212a2.949,2.949,0,0,0,.56-.792,2.868,2.868,0,0,0,.285-1.086A2.947,2.947,0,0,0,16.711,9.73ZM13.377,8.3l.1-.014c.03,0,.055.006.058.042a2.364,2.364,0,0,1,.027.366c-.007.1-.018.2-.028.3l-.025.121a2.377,2.377,0,0,1-1.336,1.673,2.5,2.5,0,0,1-.562.177c-.046.009-.07,0-.076-.057a2.3,2.3,0,0,1,.348-1.56A2.324,2.324,0,0,1,13.3,8.323C13.327,8.316,13.352,8.306,13.377,8.3ZM14.4,11.961a2.452,2.452,0,0,1,.545.683c.025.046.017.069-.03.091a2.429,2.429,0,0,1-.961.232A2.357,2.357,0,0,1,11.8,11.713c-.024-.046-.025-.069.027-.093a2.414,2.414,0,0,1,.836-.228,1.535,1.535,0,0,1,.192-.012A2.369,2.369,0,0,1,14.4,11.961ZM9.056,7.648a2.362,2.362,0,0,1,1-1.079,2.362,2.362,0,0,1,3.28,1.069c.023.05.017.059-.039.071a2.925,2.925,0,0,0-1.254.58,2.97,2.97,0,0,0-.738.856c-.035.062-.067.125-.106.2l-.15-.26A2.871,2.871,0,0,0,10.37,8.3a2.985,2.985,0,0,0-.963-.518,1.065,1.065,0,0,0-.295-.063C9.094,7.7,9.065,7.71,9.043,7.7V7.681h0Zm-.195.693a.072.072,0,0,1,.029-.07c.139.042.282.064.418.115a2.441,2.441,0,0,1,.76.444,2.385,2.385,0,0,1,.519.639,2.3,2.3,0,0,1,.273.836,2.341,2.341,0,0,1,0,.6c-.006.048-.028.064-.074.055A2.4,2.4,0,0,1,9.751,10.5a2.362,2.362,0,0,1-.63-.744,2.489,2.489,0,0,1-.286-1.22h0A.639.639,0,0,0,8.861,8.341Zm1.732,3.4a2.386,2.386,0,0,1-.757.834,2.275,2.275,0,0,1-.925.369c-.138.022-.279.025-.394.035a2.448,2.448,0,0,1-1.029-.242c-.055-.027-.046-.048-.024-.088A2.464,2.464,0,0,1,8.1,11.9a2.3,2.3,0,0,1,1.208-.49,2.329,2.329,0,0,1,1.258.221C10.619,11.661,10.621,11.686,10.593,11.738Zm-3.7.582a2.43,2.43,0,0,1-.609-.939,2.248,2.248,0,0,1-.129-.738A2.3,2.3,0,0,1,6.568,9.28a2.348,2.348,0,0,1,1.6-1.008c.078-.013.092,0,.08.08a.541.541,0,0,0-.012.139h0l0,.089a2.671,2.671,0,0,0,0,.31l.023.136a2.731,2.731,0,0,0,.23.821,2.945,2.945,0,0,0,.625.9c.011.01.022.02.032.031.027.031.028.049-.021.055a2.974,2.974,0,0,0-1.743.9,2.828,2.828,0,0,0-.422.575C6.944,12.349,6.923,12.349,6.893,12.32Zm3.775,3.52a2.352,2.352,0,0,1-1.716.211,2.32,2.32,0,0,1-1.189-.734,2.44,2.44,0,0,1-.587-1.57,2.311,2.311,0,0,1,.04-.388c.012-.065.036-.074.091-.048a2.819,2.819,0,0,0,.631.2.691.691,0,0,0,.212.024h0c.016.021.039.014.06.015a2.582,2.582,0,0,0,.448.014,2.181,2.181,0,0,0,.378-.046c.027.007.051-.009.077-.012a2.8,2.8,0,0,0,.768-.272c.015-.008.037-.02.047-.014s0,.034,0,.052a2.966,2.966,0,0,0,.345,1.92,2.629,2.629,0,0,0,.409.557C10.726,15.8,10.722,15.811,10.668,15.84Zm.677-.547c-.014.017-.034.029-.048.046-.1.111-.065.125-.182,0a2.287,2.287,0,0,1-.5-.847,2.319,2.319,0,0,1,.076-1.685,2.275,2.275,0,0,1,.455-.686c.033-.035.055-.036.089,0a2.339,2.339,0,0,1,.647,1.324c.008.056.012.112.016.169a1.222,1.222,0,0,1,.01.156A2.374,2.374,0,0,1,11.345,15.293Zm2.708-1.726c.066,0,.2-.026.317-.042l.074-.014a.736.736,0,0,0,.122-.025h0l.085-.02a2.173,2.173,0,0,0,.431-.148c.091-.04.1-.04.11.052a2.422,2.422,0,0,1-.09,1.115,2.392,2.392,0,0,1-1.365,1.453,2.386,2.386,0,0,1-1.1.162,2.7,2.7,0,0,1-.62-.141h0l-.008,0h0l-.007,0,0,0,0,0h0l-.023-.011v0a1.978,1.978,0,0,1-.213-.1c-.048-.026-.056-.048-.018-.089a2.916,2.916,0,0,0,.735-1.582,4.091,4.091,0,0,0,.028-.494c0-.134-.029-.264-.04-.4,0-.017-.013-.037,0-.05s.037,0,.053.011a2.814,2.814,0,0,0,.7.259,3.026,3.026,0,0,0,.838.072m2.033-2.108a2.267,2.267,0,0,1-.44.713l-.129.141c-.033.037-.056.03-.078-.011a2.784,2.784,0,0,0-.555-.713,2.864,2.864,0,0,0-1.008-.624,3.133,3.133,0,0,0-.571-.148c-.02,0-.049.009-.059-.018s.018-.038.033-.052a2.909,2.909,0,0,0,.41-.5A2.982,2.982,0,0,0,14.1,9.231a.141.141,0,0,0,0-.029,2.469,2.469,0,0,0,.056-.4V8.684a1.755,1.755,0,0,0-.025-.4c.036-.028.075-.011.112-.005a2.246,2.246,0,0,1,.476.127l.09.029a4.933,4.933,0,0,1,.427.248,2.309,2.309,0,0,1,.98,1.626A2.269,2.269,0,0,1,16.086,11.459Z" transform="translate(0 0)"/><path class="cls-1" d="M11.57,16.383l-.045,0" transform="translate(0 0)"/><path class="cls-1" d="M11.6,16.417" transform="translate(0 0)"/><g id="Ellipse_16" data-name="Ellipse 16"><circle id="Ellipse_19" data-name="Ellipse 19" class="cls-2" cx="11.2" cy="11.2" r="11.2"/><path class="cls-3" d="M11.2,22.4A11.2,11.2,0,1,1,22.4,11.2,11.212,11.212,0,0,1,11.2,22.4Zm0-21A9.8,9.8,0,1,0,21,11.2,9.812,9.812,0,0,0,11.2,1.4Z" transform="translate(0 0)"/></g></svg>