<svg id="Layer_1" data-name="Layer 1" xmlns="http://www.w3.org/2000/svg" viewBox="0 0 22.4 22.4"><defs><style>.cls-1,.cls-2,.cls-3{fill:#fabb14;}.cls-2,.cls-3{stroke:#fabb14;}.cls-2{stroke-linecap:square;stroke-width:1.4px;}.cls-3{stroke-width:0.6px;}</style></defs><title>header icon code</title><g id="Group_81" data-name="Group 81"><g id="Group_79" data-name="Group 79"><path id="Path_7-3" data-name="Path 7-3" class="cls-1" d="M0,11.19A11.2,11.2,0,1,1,11.19,22.4h-.1A11.21,11.21,0,0,1,0,11.19Zm11.08,9.93a9.92,9.92,0,1,0-9.8-10v.08a9.93,9.93,0,0,0,9.8,10Z" transform="translate(0 0)"/><g id="Group_78" data-name="Group 78"><path id="Path_61" data-name="Path 61" class="cls-2" d="M14.29,13.05l2.4-1.72v0l-2.4-2V8.53l3.21,2.65v.32l-3.21,2.37Z" transform="translate(0 0)"/><path id="Path_62" data-name="Path 62" class="cls-2" d="M8.11,13.87,4.9,11.5v-.32L8.11,8.53v.82l-2.4,2v0l2.4,1.72Z" transform="translate(0 0)"/><path id="Path_63" data-name="Path 63" class="cls-3" d="M13.22,6.64l-3.3,9.12H9.19l3.28-9.12Z" transform="translate(0 0)"/></g></g><g id="Group_123" data-name="Group 123"><path id="Path_7-4" data-name="Path 7-4" class="cls-1" d="M0,11.19A11.2,11.2,0,1,1,11.19,22.4h-.1A11.21,11.21,0,0,1,0,11.19Zm11.08,9.93a9.92,9.92,0,1,0-9.8-10v.08a9.93,9.93,0,0,0,9.8,10Z" transform="translate(0 0)"/><g id="Group_78-2" data-name="Group 78-2"><path id="Path_61-2" data-name="Path 61-2" class="cls-2" d="M14.29,13.05l2.4-1.72v0l-2.4-2V8.53l3.21,2.65v.32l-3.21,2.37Z" transform="translate(0 0)"/><path id="Path_62-2" data-name="Path 62-2" class="cls-2" d="M8.11,13.87,4.9,11.5v-.32L8.11,8.53v.82l-2.4,2v0l2.4,1.72Z" transform="translate(0 0)"/><path id="Path_63-2" data-name="Path 63-2" class="cls-3" d="M13.22,6.64l-3.3,9.12H9.19l3.28-9.12Z" transform="translate(0 0)"/></g></g></g></svg>